<svg width="57" height="61" viewBox="0 0 57 61" fill="none" xmlns="http://www.w3.org/2000/svg">
<path d="M18.0864 46.0234L17.2002 46.0308C16.8535 46.0308 16.541 46.082 16.2627 46.1846C15.9844 46.2822 15.7451 46.4312 15.5449 46.6313C15.3496 46.8267 15.1982 47.0732 15.0908 47.3711C14.9883 47.6641 14.937 48.0034 14.937 48.3892V52H13.1572V44.4634H14.6001L14.7612 45.3643C15.0151 45.1055 15.335 44.8906 15.7207 44.7197C16.1113 44.5488 16.5728 44.4634 17.105 44.4634H18.0864V46.0234ZM17.7217 48.2354C17.7217 47.6836 17.8242 47.166 18.0293 46.6826C18.2344 46.1943 18.52 45.7695 18.8862 45.4082C19.2573 45.0469 19.6968 44.7612 20.2046 44.5513C20.7124 44.3413 21.2666 44.2363 21.8672 44.2363C22.4727 44.2363 23.0293 44.3413 23.5371 44.5513C24.0498 44.7612 24.4893 45.0469 24.8555 45.4082C25.2266 45.7695 25.5146 46.1943 25.7197 46.6826C25.9297 47.166 26.0347 47.6836 26.0347 48.2354C26.0347 48.3574 26.0298 48.4551 26.02 48.5283C26.0103 48.6016 26.0005 48.6724 25.9907 48.7407H19.4722C19.5308 49.0483 19.6357 49.3267 19.7871 49.5757C19.9434 49.8247 20.1289 50.0371 20.3438 50.2129C20.5635 50.3838 20.8052 50.5181 21.0688 50.6157C21.3325 50.7085 21.6035 50.7549 21.8818 50.7549C22.3213 50.7549 22.7095 50.6572 23.0464 50.4619C23.3833 50.2666 23.6396 50.0103 23.8154 49.6929H25.7417C25.6196 50.0249 25.4414 50.3447 25.207 50.6523C24.9727 50.9551 24.6895 51.2236 24.3574 51.458C24.0303 51.6924 23.6567 51.8779 23.2368 52.0146C22.8218 52.1562 22.3652 52.2271 21.8672 52.2271C21.2666 52.2271 20.7124 52.1221 20.2046 51.9121C19.6968 51.7021 19.2573 51.4165 18.8862 51.0552C18.52 50.6938 18.2344 50.2715 18.0293 49.7881C17.8242 49.3047 17.7217 48.7871 17.7217 48.2354ZM21.8818 45.6646C21.5791 45.6646 21.2983 45.7109 21.0396 45.8037C20.7856 45.8916 20.5562 46.0161 20.3511 46.1772C20.1509 46.3384 19.98 46.5312 19.8384 46.7559C19.6968 46.9756 19.5918 47.2173 19.5234 47.481H24.1597C24.0913 47.2173 23.9888 46.9756 23.8521 46.7559C23.7153 46.5312 23.5493 46.3384 23.354 46.1772C23.1587 46.0161 22.9365 45.8916 22.6875 45.8037C22.4434 45.7109 22.1748 45.6646 21.8818 45.6646ZM26.0068 48.2354C26.0068 47.6836 26.1094 47.166 26.3145 46.6826C26.5195 46.1943 26.8052 45.7695 27.1714 45.4082C27.5425 45.0469 27.9819 44.7612 28.4897 44.5513C28.9976 44.3413 29.5518 44.2363 30.1523 44.2363C30.7578 44.2363 31.3145 44.3413 31.8223 44.5513C32.335 44.7612 32.7744 45.0469 33.1406 45.4082C33.5117 45.7695 33.7998 46.1943 34.0049 46.6826C34.2148 47.166 34.3198 47.6836 34.3198 48.2354C34.3198 48.3574 34.3149 48.4551 34.3052 48.5283C34.2954 48.6016 34.2856 48.6724 34.2759 48.7407H27.7573C27.8159 49.0483 27.9209 49.3267 28.0723 49.5757C28.2285 49.8247 28.4141 50.0371 28.6289 50.2129C28.8486 50.3838 29.0903 50.5181 29.354 50.6157C29.6177 50.7085 29.8887 50.7549 30.167 50.7549C30.6064 50.7549 30.9946 50.6572 31.3315 50.4619C31.6685 50.2666 31.9248 50.0103 32.1006 49.6929H34.0269C33.9048 50.0249 33.7266 50.3447 33.4922 50.6523C33.2578 50.9551 32.9746 51.2236 32.6426 51.458C32.3154 51.6924 31.9419 51.8779 31.522 52.0146C31.1069 52.1562 30.6504 52.2271 30.1523 52.2271C29.5518 52.2271 28.9976 52.1221 28.4897 51.9121C27.9819 51.7021 27.5425 51.4165 27.1714 51.0552C26.8052 50.6938 26.5195 50.2715 26.3145 49.7881C26.1094 49.3047 26.0068 48.7871 26.0068 48.2354ZM30.167 45.6646C29.8643 45.6646 29.5835 45.7109 29.3247 45.8037C29.0708 45.8916 28.8413 46.0161 28.6362 46.1772C28.436 46.3384 28.2651 46.5312 28.1235 46.7559C27.9819 46.9756 27.877 47.2173 27.8086 47.481H32.4448C32.3765 47.2173 32.2739 46.9756 32.1372 46.7559C32.0005 46.5312 31.8345 46.3384 31.6392 46.1772C31.4438 46.0161 31.2217 45.8916 30.9727 45.8037C30.7285 45.7109 30.46 45.6646 30.167 45.6646ZM20.7598 60H18.9653V55.9424C18.9653 55.5322 18.9214 55.1904 18.8335 54.917C18.7456 54.6387 18.6162 54.4165 18.4453 54.2505C18.2793 54.0796 18.0742 53.96 17.8301 53.8916C17.5908 53.8184 17.3149 53.7817 17.0024 53.7817C16.7144 53.7817 16.4434 53.833 16.1895 53.9355C15.9404 54.0381 15.7231 54.1846 15.5376 54.375C15.3569 54.5654 15.2129 54.7949 15.1055 55.0635C15.0029 55.3271 14.9517 55.6201 14.9517 55.9424V60.0073H13.1719V49.6802H14.9443L14.937 53.1519C15.23 52.8931 15.584 52.6758 15.999 52.5C16.4141 52.3242 16.8633 52.2363 17.3467 52.2363C17.9326 52.2363 18.4404 52.3169 18.8701 52.478C19.2998 52.6392 19.6538 52.876 19.9321 53.1885C20.2153 53.501 20.4229 53.8867 20.5547 54.3457C20.6914 54.7998 20.7598 55.3223 20.7598 55.9131V60ZM21.0322 56.2354C21.0322 55.6836 21.1348 55.166 21.3398 54.6826C21.5449 54.1943 21.8306 53.7695 22.1968 53.4082C22.5679 53.0469 23.0073 52.7612 23.5151 52.5513C24.0229 52.3413 24.5771 52.2363 25.1777 52.2363C25.7832 52.2363 26.3398 52.3413 26.8477 52.5513C27.3604 52.7612 27.7998 53.0469 28.166 53.4082C28.5371 53.7695 28.8252 54.1943 29.0303 54.6826C29.2402 55.166 29.3452 55.6836 29.3452 56.2354C29.3452 56.3574 29.3403 56.4551 29.3306 56.5283C29.3208 56.6016 29.311 56.6724 29.3013 56.7407H22.7827C22.8413 57.0483 22.9463 57.3267 23.0977 57.5757C23.2539 57.8247 23.4395 58.0371 23.6543 58.2129C23.874 58.3838 24.1157 58.5181 24.3794 58.6157C24.6431 58.7085 24.9141 58.7549 25.1924 58.7549C25.6318 58.7549 26.02 58.6572 26.3569 58.4619C26.6938 58.2666 26.9502 58.0103 27.126 57.6929H29.0522C28.9302 58.0249 28.752 58.3447 28.5176 58.6523C28.2832 58.9551 28 59.2236 27.668 59.458C27.3408 59.6924 26.9673 59.8779 26.5474 60.0146C26.1323 60.1562 25.6758 60.2271 25.1777 60.2271C24.5771 60.2271 24.0229 60.1221 23.5151 59.9121C23.0073 59.7021 22.5679 59.4165 22.1968 59.0552C21.8306 58.6938 21.5449 58.2715 21.3398 57.7881C21.1348 57.3047 21.0322 56.7871 21.0322 56.2354ZM25.1924 53.6646C24.8896 53.6646 24.6089 53.7109 24.3501 53.8037C24.0962 53.8916 23.8667 54.0161 23.6616 54.1772C23.4614 54.3384 23.2905 54.5312 23.1489 54.7559C23.0073 54.9756 22.9023 55.2173 22.834 55.481H27.4702C27.4019 55.2173 27.2993 54.9756 27.1626 54.7559C27.0259 54.5312 26.8599 54.3384 26.6646 54.1772C26.4692 54.0161 26.2471 53.8916 25.998 53.8037C25.7539 53.7109 25.4854 53.6646 25.1924 53.6646ZM29.3027 56.2354C29.3027 55.6836 29.3979 55.166 29.5884 54.6826C29.7837 54.1943 30.0571 53.7695 30.4087 53.4082C30.7651 53.0469 31.1899 52.7612 31.6831 52.5513C32.1812 52.3413 32.7329 52.2363 33.3384 52.2363C33.6216 52.2363 33.8901 52.2656 34.144 52.3242C34.4028 52.3779 34.6445 52.4536 34.8691 52.5513C35.0938 52.644 35.2988 52.7563 35.4844 52.8882C35.6748 53.0151 35.8433 53.1494 35.9897 53.291L36.0923 52.4634H37.6157V60H36.0923L35.9897 59.1724C35.8384 59.3188 35.6675 59.4556 35.4771 59.5825C35.2866 59.7095 35.0791 59.8218 34.8545 59.9194C34.6348 60.0122 34.3955 60.0854 34.1367 60.1392C33.8828 60.1978 33.6143 60.2271 33.3311 60.2271C32.7305 60.2271 32.1812 60.1245 31.6831 59.9194C31.1899 59.7095 30.7676 59.4238 30.416 59.0625C30.0645 58.7012 29.791 58.2788 29.5957 57.7954C29.4004 57.3071 29.3027 56.7871 29.3027 56.2354ZM31.0825 56.228C31.0825 56.5894 31.146 56.9214 31.2729 57.2241C31.3999 57.5269 31.5732 57.7881 31.793 58.0078C32.0127 58.2227 32.269 58.3911 32.562 58.5132C32.855 58.6304 33.1699 58.689 33.5068 58.689C33.8389 58.689 34.1514 58.6304 34.4443 58.5132C34.7373 58.3911 34.9912 58.2227 35.2061 58.0078C35.4258 57.7881 35.5991 57.5293 35.7261 57.2314C35.853 56.9287 35.9165 56.5942 35.9165 56.228C35.9165 55.8716 35.853 55.5444 35.7261 55.2466C35.5991 54.9438 35.4258 54.6851 35.2061 54.4702C34.9863 54.2554 34.73 54.0869 34.437 53.9648C34.144 53.8428 33.8291 53.7817 33.4922 53.7817C33.1553 53.7817 32.8403 53.8428 32.5474 53.9648C32.2544 54.082 31.998 54.2505 31.7783 54.4702C31.5635 54.6851 31.3926 54.9438 31.2656 55.2466C31.1436 55.5444 31.0825 55.8716 31.0825 56.228ZM38.1152 56.2354C38.1152 55.6836 38.2104 55.166 38.4009 54.6826C38.5913 54.1943 38.8599 53.7695 39.2065 53.4082C39.5581 53.042 39.9805 52.7539 40.4736 52.5439C40.9668 52.334 41.5137 52.229 42.1143 52.229C42.6562 52.229 43.1372 52.3193 43.5571 52.5C43.9771 52.6807 44.3408 52.9102 44.6484 53.1885V49.6802H46.4282V60H44.9048L44.7949 59.1211C44.6436 59.2773 44.4727 59.4238 44.2822 59.5605C44.0967 59.6924 43.8916 59.8096 43.667 59.9121C43.4424 60.0098 43.2031 60.0879 42.9492 60.1465C42.6953 60.2051 42.4268 60.2344 42.1436 60.2344C41.543 60.2344 40.9937 60.1294 40.4956 59.9194C40.0024 59.7095 39.5801 59.4238 39.2285 59.0625C38.877 58.7012 38.6035 58.2788 38.4082 57.7954C38.2129 57.3071 38.1152 56.7871 38.1152 56.2354ZM39.895 56.228C39.895 56.5894 39.9585 56.9214 40.0854 57.2241C40.2124 57.5269 40.3857 57.7881 40.6055 58.0078C40.8252 58.2227 41.0815 58.3911 41.3745 58.5132C41.6675 58.6304 41.9824 58.689 42.3193 58.689C42.6514 58.689 42.9639 58.6304 43.2568 58.5132C43.5498 58.3911 43.8037 58.2227 44.0186 58.0078C44.2383 57.7881 44.4116 57.5293 44.5386 57.2314C44.6655 56.9287 44.729 56.5942 44.729 56.228C44.729 55.8716 44.6655 55.5444 44.5386 55.2466C44.4116 54.9438 44.2383 54.6851 44.0186 54.4702C43.7988 54.2554 43.5425 54.0869 43.2495 53.9648C42.9565 53.8428 42.6416 53.7817 42.3047 53.7817C41.9678 53.7817 41.6528 53.8428 41.3599 53.9648C41.0669 54.082 40.8105 54.2505 40.5908 54.4702C40.376 54.6851 40.2051 54.9438 40.0781 55.2466C39.9561 55.5444 39.895 55.8716 39.895 56.228Z" fill="#FDF8F6"/>
<path d="M44 0H0V9H57L44 0Z" fill="#F4662D"/>
<path d="M21 15.5H0V33.5L11.5 60V25.5H35.5L21 15.5Z" fill="#F4662D"/>
</svg>
