<svg width="247" height="61" viewBox="0 0 247 61" fill="none" xmlns="http://www.w3.org/2000/svg">
<circle cx="242.5" cy="55.5" r="4" fill="#FDF8F6"/>
<path d="M35.8457 35.5938L32.3008 35.623C30.9141 35.623 29.6641 35.8281 28.5508 36.2383C27.4375 36.6289 26.4805 37.2246 25.6797 38.0254C24.8984 38.8066 24.293 39.793 23.8633 40.9844C23.4531 42.1562 23.248 43.5137 23.248 45.0566V59.5H16.1289V29.3535H21.9004L22.5449 32.957C23.5605 31.9219 24.8398 31.0625 26.3828 30.3789C27.9453 29.6953 29.791 29.3535 31.9199 29.3535H35.8457V35.5938ZM34.3867 44.4414C34.3867 42.2344 34.7969 40.1641 35.6172 38.2305C36.4375 36.2773 37.5801 34.5781 39.0449 33.1328C40.5293 31.6875 42.2871 30.5449 44.3184 29.7051C46.3496 28.8652 48.5664 28.4453 50.9688 28.4453C53.3906 28.4453 55.6172 28.8652 57.6484 29.7051C59.6992 30.5449 61.457 31.6875 62.9219 33.1328C64.4062 34.5781 65.5586 36.2773 66.3789 38.2305C67.2188 40.1641 67.6387 42.2344 67.6387 44.4414C67.6387 44.9297 67.6191 45.3203 67.5801 45.6133C67.541 45.9062 67.502 46.1895 67.4629 46.4629H41.3887C41.623 47.6934 42.043 48.8066 42.6484 49.8027C43.2734 50.7988 44.0156 51.6484 44.875 52.3516C45.7539 53.0352 46.7207 53.5723 47.7754 53.9629C48.8301 54.334 49.9141 54.5195 51.0273 54.5195C52.7852 54.5195 54.3379 54.1289 55.6855 53.3477C57.0332 52.5664 58.0586 51.541 58.7617 50.2715H66.4668C65.9785 51.5996 65.2656 52.8789 64.3281 54.1094C63.3906 55.3203 62.2578 56.3945 60.9297 57.332C59.6211 58.2695 58.127 59.0117 56.4473 59.5586C54.7871 60.125 52.9609 60.4082 50.9688 60.4082C48.5664 60.4082 46.3496 59.9883 44.3184 59.1484C42.2871 58.3086 40.5293 57.166 39.0449 55.7207C37.5801 54.2754 36.4375 52.5859 35.6172 50.6523C34.7969 48.7188 34.3867 46.6484 34.3867 44.4414ZM51.0273 34.1582C49.8164 34.1582 48.6934 34.3438 47.6582 34.7148C46.6426 35.0664 45.7246 35.5645 44.9043 36.209C44.1035 36.8535 43.4199 37.625 42.8535 38.5234C42.2871 39.4023 41.8672 40.3691 41.5938 41.4238H60.1387C59.8652 40.3691 59.4551 39.4023 58.9082 38.5234C58.3613 37.625 57.6973 36.8535 56.916 36.209C56.1348 35.5645 55.2461 35.0664 54.25 34.7148C53.2734 34.3438 52.1992 34.1582 51.0273 34.1582ZM67.5273 44.4414C67.5273 42.2344 67.9375 40.1641 68.7578 38.2305C69.5781 36.2773 70.7207 34.5781 72.1855 33.1328C73.6699 31.6875 75.4277 30.5449 77.459 29.7051C79.4902 28.8652 81.707 28.4453 84.1094 28.4453C86.5312 28.4453 88.7578 28.8652 90.7891 29.7051C92.8398 30.5449 94.5977 31.6875 96.0625 33.1328C97.5469 34.5781 98.6992 36.2773 99.5195 38.2305C100.359 40.1641 100.779 42.2344 100.779 44.4414C100.779 44.9297 100.76 45.3203 100.721 45.6133C100.682 45.9062 100.643 46.1895 100.604 46.4629H74.5293C74.7637 47.6934 75.1836 48.8066 75.7891 49.8027C76.4141 50.7988 77.1562 51.6484 78.0156 52.3516C78.8945 53.0352 79.8613 53.5723 80.916 53.9629C81.9707 54.334 83.0547 54.5195 84.168 54.5195C85.9258 54.5195 87.4785 54.1289 88.8262 53.3477C90.1738 52.5664 91.1992 51.541 91.9023 50.2715H99.6074C99.1191 51.5996 98.4062 52.8789 97.4688 54.1094C96.5312 55.3203 95.3984 56.3945 94.0703 57.332C92.7617 58.2695 91.2676 59.0117 89.5879 59.5586C87.9277 60.125 86.1016 60.4082 84.1094 60.4082C81.707 60.4082 79.4902 59.9883 77.459 59.1484C75.4277 58.3086 73.6699 57.166 72.1855 55.7207C70.7207 54.2754 69.5781 52.5859 68.7578 50.6523C67.9375 48.7188 67.5273 46.6484 67.5273 44.4414ZM84.168 34.1582C82.957 34.1582 81.834 34.3438 80.7988 34.7148C79.7832 35.0664 78.8652 35.5645 78.0449 36.209C77.2441 36.8535 76.5605 37.625 75.9941 38.5234C75.4277 39.4023 75.0078 40.3691 74.7344 41.4238H93.2793C93.0059 40.3691 92.5957 39.4023 92.0488 38.5234C91.502 37.625 90.8379 36.8535 90.0566 36.209C89.2754 35.5645 88.3867 35.0664 87.3906 34.7148C86.4141 34.3438 85.3398 34.1582 84.168 34.1582ZM132.719 59.5H125.541V43.2695C125.541 41.6289 125.365 40.2617 125.014 39.168C124.662 38.0547 124.145 37.166 123.461 36.502C122.797 35.8184 121.977 35.3398 121 35.0664C120.043 34.7734 118.939 34.627 117.689 34.627C116.537 34.627 115.453 34.832 114.438 35.2422C113.441 35.6523 112.572 36.2383 111.83 37C111.107 37.7617 110.531 38.6797 110.102 39.7539C109.691 40.8086 109.486 41.9805 109.486 43.2695V59.5293H102.367V18.2207H109.457L109.428 32.1074C110.6 31.0723 112.016 30.2031 113.676 29.5C115.336 28.7969 117.133 28.4453 119.066 28.4453C121.41 28.4453 123.441 28.7676 125.16 29.4121C126.879 30.0566 128.295 31.0039 129.408 32.2539C130.541 33.5039 131.371 35.0469 131.898 36.8828C132.445 38.6992 132.719 40.7891 132.719 43.1523V59.5ZM133.809 44.4414C133.809 42.2344 134.219 40.1641 135.039 38.2305C135.859 36.2773 137.002 34.5781 138.467 33.1328C139.951 31.6875 141.709 30.5449 143.74 29.7051C145.771 28.8652 147.988 28.4453 150.391 28.4453C152.812 28.4453 155.039 28.8652 157.07 29.7051C159.121 30.5449 160.879 31.6875 162.344 33.1328C163.828 34.5781 164.98 36.2773 165.801 38.2305C166.641 40.1641 167.061 42.2344 167.061 44.4414C167.061 44.9297 167.041 45.3203 167.002 45.6133C166.963 45.9062 166.924 46.1895 166.885 46.4629H140.811C141.045 47.6934 141.465 48.8066 142.07 49.8027C142.695 50.7988 143.438 51.6484 144.297 52.3516C145.176 53.0352 146.143 53.5723 147.197 53.9629C148.252 54.334 149.336 54.5195 150.449 54.5195C152.207 54.5195 153.76 54.1289 155.107 53.3477C156.455 52.5664 157.48 51.541 158.184 50.2715H165.889C165.4 51.5996 164.688 52.8789 163.75 54.1094C162.812 55.3203 161.68 56.3945 160.352 57.332C159.043 58.2695 157.549 59.0117 155.869 59.5586C154.209 60.125 152.383 60.4082 150.391 60.4082C147.988 60.4082 145.771 59.9883 143.74 59.1484C141.709 58.3086 139.951 57.166 138.467 55.7207C137.002 54.2754 135.859 52.5859 135.039 50.6523C134.219 48.7188 133.809 46.6484 133.809 44.4414ZM150.449 34.1582C149.238 34.1582 148.115 34.3438 147.08 34.7148C146.064 35.0664 145.146 35.5645 144.326 36.209C143.525 36.8535 142.842 37.625 142.275 38.5234C141.709 39.4023 141.289 40.3691 141.016 41.4238H159.561C159.287 40.3691 158.877 39.4023 158.33 38.5234C157.783 37.625 157.119 36.8535 156.338 36.209C155.557 35.5645 154.668 35.0664 153.672 34.7148C152.695 34.3438 151.621 34.1582 150.449 34.1582ZM166.891 44.4414C166.891 42.2344 167.271 40.1641 168.033 38.2305C168.814 36.2773 169.908 34.5781 171.314 33.1328C172.74 31.6875 174.439 30.5449 176.412 29.7051C178.404 28.8652 180.611 28.4453 183.033 28.4453C184.166 28.4453 185.24 28.5625 186.256 28.7969C187.291 29.0117 188.258 29.3145 189.156 29.7051C190.055 30.0762 190.875 30.5254 191.617 31.0527C192.379 31.5605 193.053 32.0977 193.639 32.6641L194.049 29.3535H200.143V59.5H194.049L193.639 56.1895C193.033 56.7754 192.35 57.3223 191.588 57.8301C190.826 58.3379 189.996 58.7871 189.098 59.1777C188.219 59.5488 187.262 59.8418 186.227 60.0566C185.211 60.291 184.137 60.4082 183.004 60.4082C180.602 60.4082 178.404 59.998 176.412 59.1777C174.439 58.3379 172.75 57.1953 171.344 55.75C169.938 54.3047 168.844 52.6152 168.062 50.6816C167.281 48.7285 166.891 46.6484 166.891 44.4414ZM174.01 44.4121C174.01 45.8574 174.264 47.1855 174.771 48.3965C175.279 49.6074 175.973 50.6523 176.852 51.5312C177.73 52.3906 178.756 53.0645 179.928 53.5527C181.1 54.0215 182.359 54.2559 183.707 54.2559C185.035 54.2559 186.285 54.0215 187.457 53.5527C188.629 53.0645 189.645 52.3906 190.504 51.5312C191.383 50.6523 192.076 49.6172 192.584 48.4258C193.092 47.2148 193.346 45.877 193.346 44.4121C193.346 42.9863 193.092 41.6777 192.584 40.4863C192.076 39.2754 191.383 38.2402 190.504 37.3809C189.625 36.5215 188.6 35.8477 187.428 35.3594C186.256 34.8711 184.996 34.627 183.648 34.627C182.301 34.627 181.041 34.8711 179.869 35.3594C178.697 35.8281 177.672 36.502 176.793 37.3809C175.934 38.2402 175.25 39.2754 174.742 40.4863C174.254 41.6777 174.01 42.9863 174.01 44.4121ZM202.141 44.4414C202.141 42.2344 202.521 40.1641 203.283 38.2305C204.045 36.2773 205.119 34.5781 206.506 33.1328C207.912 31.668 209.602 30.5156 211.574 29.6758C213.547 28.8359 215.734 28.416 218.137 28.416C220.305 28.416 222.229 28.7773 223.908 29.5C225.588 30.2227 227.043 31.1406 228.273 32.2539V18.2207H235.393V59.5H229.299L228.859 55.9844C228.254 56.6094 227.57 57.1953 226.809 57.7422C226.066 58.2695 225.246 58.7383 224.348 59.1484C223.449 59.5391 222.492 59.8516 221.477 60.0859C220.461 60.3203 219.387 60.4375 218.254 60.4375C215.852 60.4375 213.654 60.0176 211.662 59.1777C209.689 58.3379 208 57.1953 206.594 55.75C205.188 54.3047 204.094 52.6152 203.312 50.6816C202.531 48.7285 202.141 46.6484 202.141 44.4414ZM209.26 44.4121C209.26 45.8574 209.514 47.1855 210.021 48.3965C210.529 49.6074 211.223 50.6523 212.102 51.5312C212.98 52.3906 214.006 53.0645 215.178 53.5527C216.35 54.0215 217.609 54.2559 218.957 54.2559C220.285 54.2559 221.535 54.0215 222.707 53.5527C223.879 53.0645 224.895 52.3906 225.754 51.5312C226.633 50.6523 227.326 49.6172 227.834 48.4258C228.342 47.2148 228.596 45.877 228.596 44.4121C228.596 42.9863 228.342 41.6777 227.834 40.4863C227.326 39.2754 226.633 38.2402 225.754 37.3809C224.875 36.5215 223.85 35.8477 222.678 35.3594C221.506 34.8711 220.246 34.627 218.898 34.627C217.551 34.627 216.291 34.8711 215.119 35.3594C213.947 35.8281 212.922 36.502 212.043 37.3809C211.184 38.2402 210.5 39.2754 209.992 40.4863C209.504 41.6777 209.26 42.9863 209.26 44.4121Z" fill="#FDF8F6"/>
<path d="M44 0H0V9H57L44 0Z" fill="#F4662D"/>
<path d="M21 15.5H0V33.5L11.5 60V25.5H35.5L21 15.5Z" fill="#F4662D"/>
</svg>
