<svg width="25" height="26" viewBox="0 0 25 26" fill="none" xmlns="http://www.w3.org/2000/svg">
<path d="M20.1149 16.3408C20.1149 16.5381 20.0709 16.7328 19.9861 16.9092L18.8937 16.3408C19.9137 16.8715 19.9809 16.9076 19.985 16.9105V16.9118L19.9826 16.9155C19.9826 16.9155 19.9802 16.9204 19.979 16.923C19.9763 16.9283 19.973 16.9344 19.9695 16.9415C19.9622 16.9561 19.9534 16.9746 19.942 16.9962C19.9193 17.0393 19.8875 17.0956 19.8477 17.1637C19.7682 17.3002 19.6531 17.484 19.4983 17.6987C19.1892 18.1276 18.7192 18.6865 18.0541 19.2403C16.7082 20.3609 14.6106 21.4249 11.5661 21.425C8.5217 21.425 6.42403 20.3609 5.07817 19.2403C4.41303 18.6865 3.943 18.1276 3.63388 17.6987C3.47923 17.4841 3.36405 17.3002 3.28444 17.1637C3.24469 17.0956 3.21297 17.0393 3.19022 16.9962C3.17886 16.9747 3.1701 16.9561 3.16279 16.9415C3.15922 16.9345 3.15588 16.9283 3.15325 16.923C3.15201 16.9204 3.14967 16.9155 3.14967 16.9155L3.14729 16.9118V16.9105C3.15209 16.9072 3.22379 16.8688 4.23855 16.3408L3.14609 16.9092C3.06131 16.7328 3.0173 16.5381 3.01729 16.3408V12.4904L10.0836 16.5766C10.1156 16.595 10.1485 16.6123 10.1815 16.6287L10.3234 16.6995C10.3611 16.7183 10.4002 16.7367 10.439 16.7529C11.2856 17.1027 12.2443 17.0414 13.0486 16.5766L20.1149 12.4904V16.3408ZM10.3794 0.319879C11.1172 -0.106607 12.0152 -0.106646 12.7528 0.319879L23.118 6.3139L23.6499 6.5907C24.4773 7.02134 25 7.90183 25 8.86465V15.0698C25 15.7716 24.4531 16.3407 23.7787 16.3408C23.1042 16.3408 22.5575 15.7716 22.5575 15.0698V8.89693L12.7528 14.5671C12.0152 14.9935 11.1171 14.9935 10.3794 14.5671L0.942096 9.11047C-0.314032 8.38407 -0.314032 6.50288 0.942096 5.77644L10.3794 0.319879Z" fill="#FDF8F6"/>
<circle cx="17.5" cy="18.75" r="6.25" fill="#0A1A32"/>
<path d="M17.5 13C14.0481 13 11.25 15.7982 11.25 19.25C11.25 22.7019 14.0481 25.5 17.5 25.5C20.9519 25.5 23.75 22.7019 23.75 19.25C23.75 15.7982 20.9519 13 17.5 13ZM20.625 19.875H18.125V22.375H16.875V19.875H14.375V18.625H16.875V16.125H18.125V18.625H20.625V19.875Z" fill="#F4662D"/>
</svg>
