<svg width="20" height="19" viewBox="0 0 20 19" fill="none" xmlns="http://www.w3.org/2000/svg">
<path fill-rule="evenodd" clip-rule="evenodd" d="M14.4025 11.3418H8.30753C8.9991 11.2802 9.64036 10.9545 10.0981 10.4324C10.5558 9.91033 10.7947 9.23197 10.7653 8.53829C10.7358 7.8446 10.4402 7.18893 9.93995 6.7075C9.43965 6.22608 8.77311 5.95591 8.07881 5.95314H6.08785C6.3855 5.5529 6.5984 5.09616 6.71352 4.61083C6.82863 4.12551 6.84355 3.6218 6.75737 3.13051C6.67118 2.63923 6.48569 2.17068 6.21225 1.75352C5.9388 1.33637 5.58315 0.979364 5.16702 0.704346L14.4025 0.704346C14.8264 0.704974 15.2327 0.873809 15.5322 1.17378C15.8318 1.47375 16 1.88032 16 2.30423V9.74545C16 10.6272 15.2842 11.343 14.4025 11.343V11.3418ZM3.13932 5.95551C3.43113 5.9623 3.72136 5.91069 3.99294 5.80371C4.26452 5.69673 4.51197 5.53654 4.72075 5.33256C4.92954 5.12857 5.09544 4.88491 5.20871 4.6159C5.32198 4.34688 5.38032 4.05793 5.38032 3.76604C5.38032 3.47415 5.32198 3.18521 5.20871 2.91619C5.09544 2.64718 4.92954 2.40351 4.72075 2.19953C4.51197 1.99555 4.26452 1.83536 3.99294 1.72838C3.72136 1.6214 3.43113 1.56979 3.13932 1.57658C2.56746 1.58988 2.0235 1.8264 1.62375 2.23556C1.22401 2.64471 1.0002 3.19403 1.0002 3.76604C1.0002 4.33806 1.22401 4.88738 1.62375 5.29653C2.0235 5.70569 2.56746 5.94221 3.13932 5.95551ZM9.2959 8.65279C9.2959 7.97966 8.75076 7.43451 8.07881 7.43451H3.14051C2.30759 7.43451 1.50879 7.76539 0.919833 8.35435C0.330874 8.94331 0 9.74211 0 10.575V12.0031C0 12.6335 0.511962 13.1443 1.14243 13.1443H1.34627L1.68047 16.2374C1.71172 16.5278 1.84913 16.7965 2.06632 16.9918C2.28351 17.1871 2.56518 17.2953 2.85727 17.2957H3.45219C3.73808 17.2956 4.01428 17.1921 4.22989 17.0044C4.4455 16.8167 4.58598 16.5573 4.62543 16.2742L5.51781 9.86989H8.07762C8.74957 9.86989 9.29472 9.32474 9.29472 8.65279H9.2959Z" fill="#FDF8F6"/>
<path fill-rule="evenodd" clip-rule="evenodd" d="M18.6667 13.3333C18.6667 16.2789 16.2789 18.6667 13.3333 18.6667C10.3877 18.6667 8 16.2789 8 13.3333C8 10.3877 10.3877 8 13.3333 8C16.2789 8 18.6667 10.3877 18.6667 13.3333ZM11.2 13.8667C11.3414 13.8667 11.4771 13.8105 11.5771 13.7105C11.6771 13.6104 11.7333 13.4748 11.7333 13.3333C11.7333 13.1919 11.6771 13.0562 11.5771 12.9562C11.4771 12.8562 11.3414 12.8 11.2 12.8C11.0586 12.8 10.9229 12.8562 10.8229 12.9562C10.7229 13.0562 10.6667 13.1919 10.6667 13.3333C10.6667 13.4748 10.7229 13.6104 10.8229 13.7105C10.9229 13.8105 11.0586 13.8667 11.2 13.8667ZM13.3333 13.8667C13.4748 13.8667 13.6104 13.8105 13.7105 13.7105C13.8105 13.6104 13.8667 13.4748 13.8667 13.3333C13.8667 13.1919 13.8105 13.0562 13.7105 12.9562C13.6104 12.8562 13.4748 12.8 13.3333 12.8C13.1919 12.8 13.0562 12.8562 12.9562 12.9562C12.8562 13.0562 12.8 13.1919 12.8 13.3333C12.8 13.4748 12.8562 13.6104 12.9562 13.7105C13.0562 13.8105 13.1919 13.8667 13.3333 13.8667ZM15.4667 13.8667C15.6081 13.8667 15.7438 13.8105 15.8438 13.7105C15.9438 13.6104 16 13.4748 16 13.3333C16 13.1919 15.9438 13.0562 15.8438 12.9562C15.7438 12.8562 15.6081 12.8 15.4667 12.8C15.3252 12.8 15.1896 12.8562 15.0895 12.9562C14.9895 13.0562 14.9333 13.1919 14.9333 13.3333C14.9333 13.4748 14.9895 13.6104 15.0895 13.7105C15.1896 13.8105 15.3252 13.8667 15.4667 13.8667Z" fill="#F4662D"/>
</svg>
