<svg width="20" height="21" viewBox="0 0 20 21" fill="none" xmlns="http://www.w3.org/2000/svg">
<path fill-rule="evenodd" clip-rule="evenodd" d="M16.0028 11.8194H9.23059C9.999 11.7509 10.7115 11.3891 11.2201 10.809C11.7286 10.2289 11.9941 9.47514 11.9614 8.70438C11.9287 7.93362 11.6003 7.20509 11.0444 6.67018C10.4885 6.13526 9.7479 5.83507 8.97645 5.832H6.76427C7.095 5.38728 7.33155 4.87979 7.45946 4.34054C7.58737 3.80129 7.60395 3.24162 7.50818 2.69574C7.41242 2.14987 7.20632 1.62926 6.9025 1.16575C6.59867 0.702245 6.2035 0.305576 5.74114 0L16.0028 0C16.4738 0.000697785 16.9252 0.188293 17.2581 0.521591C17.5909 0.854888 17.7778 1.30664 17.7778 1.77765V10.0457C17.7778 11.0254 16.9824 11.8207 16.0028 11.8207V11.8194ZM3.48814 5.83463C3.81237 5.84217 4.13484 5.78483 4.4366 5.66596C4.73835 5.54709 5.0133 5.36911 5.24528 5.14246C5.47727 4.91581 5.6616 4.64508 5.78745 4.34617C5.91331 4.04726 5.97814 3.72621 5.97814 3.40189C5.97814 3.07757 5.91331 2.75651 5.78745 2.45761C5.6616 2.1587 5.47727 1.88796 5.24528 1.66132C5.0133 1.43467 4.73835 1.25668 4.4366 1.13782C4.13484 1.01895 3.81237 0.961602 3.48814 0.969146C2.85273 0.98393 2.24833 1.24673 1.80417 1.70134C1.36001 2.15596 1.11134 2.76631 1.11134 3.40189C1.11134 4.03746 1.36001 4.64781 1.80417 5.10243C2.24833 5.55705 2.85273 5.81985 3.48814 5.83463ZM10.3288 8.83161C10.3288 8.08368 9.72307 7.47796 8.97645 7.47796H3.48945C2.56399 7.47796 1.67644 7.8456 1.02204 8.5C0.367638 9.1544 0 10.042 0 10.9674V12.5541C0 13.2547 0.568847 13.8222 1.26937 13.8222H1.49586L1.86719 17.259C1.90191 17.5817 2.05459 17.8801 2.29591 18.0972C2.53723 18.3142 2.85019 18.4344 3.17474 18.4348H3.83577C4.15342 18.4347 4.46031 18.3197 4.69988 18.1112C4.93945 17.9026 5.09554 17.6144 5.13937 17.2998L6.1309 10.1839H8.97514C9.72175 10.1839 10.3275 9.57822 10.3275 8.83161H10.3288Z" fill="#FDF8F6"/>
<circle cx="14.4445" cy="14.4444" r="5.55556" fill="#0A1A32"/>
<path fill-rule="evenodd" clip-rule="evenodd" d="M20 14.4444C20 17.5128 17.5128 20 14.4445 20C11.3761 20 8.88892 17.5128 8.88892 14.4444C8.88892 11.3761 11.3761 8.88889 14.4445 8.88889C17.5128 8.88889 20 11.3761 20 14.4444ZM12.2222 15C12.3696 15 12.5109 14.9415 12.6151 14.8373C12.7193 14.7331 12.7778 14.5918 12.7778 14.4444C12.7778 14.2971 12.7193 14.1558 12.6151 14.0516C12.5109 13.9474 12.3696 13.8889 12.2222 13.8889C12.0749 13.8889 11.9336 13.9474 11.8294 14.0516C11.7252 14.1558 11.6667 14.2971 11.6667 14.4444C11.6667 14.5918 11.7252 14.7331 11.8294 14.8373C11.9336 14.9415 12.0749 15 12.2222 15ZM14.4445 15C14.5918 15 14.7331 14.9415 14.8373 14.8373C14.9415 14.7331 15 14.5918 15 14.4444C15 14.2971 14.9415 14.1558 14.8373 14.0516C14.7331 13.9474 14.5918 13.8889 14.4445 13.8889C14.2971 13.8889 14.1558 13.9474 14.0516 14.0516C13.9474 14.1558 13.8889 14.2971 13.8889 14.4444C13.8889 14.5918 13.9474 14.7331 14.0516 14.8373C14.1558 14.9415 14.2971 15 14.4445 15ZM16.6667 15C16.814 15 16.9553 14.9415 17.0595 14.8373C17.1637 14.7331 17.2222 14.5918 17.2222 14.4444C17.2222 14.2971 17.1637 14.1558 17.0595 14.0516C16.9553 13.9474 16.814 13.8889 16.6667 13.8889C16.5194 13.8889 16.378 13.9474 16.2739 14.0516C16.1697 14.1558 16.1111 14.2971 16.1111 14.4444C16.1111 14.5918 16.1697 14.7331 16.2739 14.8373C16.378 14.9415 16.5194 15 16.6667 15Z" fill="#F4662D"/>
</svg>
