<svg width="20" height="21" viewBox="0 0 20 21" fill="none" xmlns="http://www.w3.org/2000/svg">
<circle cx="14.5" cy="14.5" r="5.5" fill="#0A1A32"/>
<path fill-rule="evenodd" clip-rule="evenodd" d="M20 14.5C20 17.5376 17.5376 20 14.5 20C11.4624 20 9 17.5376 9 14.5C9 11.4624 11.4624 9 14.5 9C17.5376 9 20 11.4624 20 14.5ZM12.3 15.05C12.4459 15.05 12.5858 14.9921 12.6889 14.8889C12.7921 14.7858 12.85 14.6459 12.85 14.5C12.85 14.3541 12.7921 14.2142 12.6889 14.1111C12.5858 14.0079 12.4459 13.95 12.3 13.95C12.1541 13.95 12.0142 14.0079 11.9111 14.1111C11.8079 14.2142 11.75 14.3541 11.75 14.5C11.75 14.6459 11.8079 14.7858 11.9111 14.8889C12.0142 14.9921 12.1541 15.05 12.3 15.05ZM14.5 15.05C14.6459 15.05 14.7858 14.9921 14.8889 14.8889C14.9921 14.7858 15.05 14.6459 15.05 14.5C15.05 14.3541 14.9921 14.2142 14.8889 14.1111C14.7858 14.0079 14.6459 13.95 14.5 13.95C14.3541 13.95 14.2142 14.0079 14.1111 14.1111C14.0079 14.2142 13.95 14.3541 13.95 14.5C13.95 14.6459 14.0079 14.7858 14.1111 14.8889C14.2142 14.9921 14.3541 15.05 14.5 15.05ZM16.7 15.05C16.8459 15.05 16.9858 14.9921 17.0889 14.8889C17.1921 14.7858 17.25 14.6459 17.25 14.5C17.25 14.3541 17.1921 14.2142 17.0889 14.1111C16.9858 14.0079 16.8459 13.95 16.7 13.95C16.5541 13.95 16.4142 14.0079 16.3111 14.1111C16.2079 14.2142 16.15 14.3541 16.15 14.5C16.15 14.6459 16.2079 14.7858 16.3111 14.8889C16.4142 14.9921 16.5541 15.05 16.7 15.05Z" fill="#F4662D"/>
<path d="M12.3529 2.94118C12.3529 3.72123 12.0431 4.46933 11.4915 5.0209C10.9399 5.57248 10.1918 5.88235 9.41177 5.88235C8.63172 5.88235 7.88362 5.57248 7.33204 5.0209C6.78046 4.46933 6.47059 3.72123 6.47059 2.94118C6.47059 2.16113 6.78046 1.41303 7.33204 0.861451C7.88362 0.309873 8.63172 0 9.41177 0C10.1918 0 10.9399 0.309873 11.4915 0.861451C12.0431 1.41303 12.3529 2.16113 12.3529 2.94118ZM18.2353 3.52941C18.2353 4.15345 17.9874 4.75193 17.5461 5.19319C17.1049 5.63446 16.5064 5.88235 15.8824 5.88235C15.2583 5.88235 14.6598 5.63446 14.2186 5.19319C13.7773 4.75193 13.5294 4.15345 13.5294 3.52941C13.5294 2.90537 13.7773 2.30689 14.2186 1.86563C14.6598 1.42437 15.2583 1.17647 15.8824 1.17647C16.5064 1.17647 17.1049 1.42437 17.5461 1.86563C17.9874 2.30689 18.2353 2.90537 18.2353 3.52941ZM2.94118 5.88235C3.56522 5.88235 4.1637 5.63446 4.60496 5.19319C5.04622 4.75193 5.29412 4.15345 5.29412 3.52941C5.29412 2.90537 5.04622 2.30689 4.60496 1.86563C4.1637 1.42437 3.56522 1.17647 2.94118 1.17647C2.31714 1.17647 1.71866 1.42437 1.2774 1.86563C0.836134 2.30689 0.588235 2.90537 0.588235 3.52941C0.588235 4.15345 0.836134 4.75193 1.2774 5.19319C1.71866 5.63446 2.31714 5.88235 2.94118 5.88235ZM4.70588 8.52941C4.70588 7.71765 5.36471 7.05882 6.17647 7.05882H12.6471C12.9911 7.05866 13.3243 7.17911 13.5887 7.39922C13.8531 7.61933 14.0319 7.92517 14.0941 8.26353C12.9251 8.37429 11.8083 8.80106 10.8634 9.4981C9.91844 10.1951 9.18098 11.1362 8.73004 12.2204C8.27911 13.3045 8.13169 14.491 8.3036 15.6526C8.4755 16.8141 8.96025 17.907 9.70588 18.8141C9.0644 18.8543 8.42148 18.7626 7.81679 18.5448C7.21209 18.3269 6.65843 17.9875 6.18994 17.5475C5.72146 17.1074 5.34809 16.5761 5.09285 15.9862C4.83761 15.3963 4.70591 14.7604 4.70588 14.1176V8.52941ZM15.2812 8.26C16.6212 8.37765 17.8435 8.90471 18.8235 9.71412V8.52941C18.8235 7.71765 18.1647 7.05882 17.3529 7.05882H14.8482C15.0835 7.40941 15.2365 7.81882 15.28 8.26M3.52941 8.52941C3.52941 7.98471 3.69412 7.48 3.97529 7.05882H1.47059C0.658824 7.05882 2.09859e-08 7.71765 2.09859e-08 8.52941V12.9412C-5.4901e-05 13.4448 0.107692 13.9427 0.316002 14.4013C0.524312 14.8598 0.828358 15.2685 1.20771 15.5998C1.58707 15.9312 2.03294 16.1775 2.51537 16.3222C2.99781 16.4669 3.50562 16.5067 4.00471 16.4388C3.69048 15.7053 3.52877 14.9156 3.52941 14.1176V8.52941Z" fill="#FDF8F6"/>
</svg>
