<svg width="20" height="23" viewBox="0 0 20 23" fill="none" xmlns="http://www.w3.org/2000/svg">
<path d="M14.7783 12.0038C14.7783 12.1487 14.7459 12.2917 14.6837 12.4213L13.8811 12.0038C14.6305 12.3936 14.6798 12.4201 14.6829 12.4223V12.4232L14.6811 12.4259C14.6811 12.4259 14.6794 12.4296 14.6785 12.4314C14.6765 12.4353 14.6741 12.4398 14.6715 12.4451C14.6661 12.4558 14.6596 12.4693 14.6513 12.4852C14.6346 12.5169 14.6113 12.5582 14.582 12.6083C14.5236 12.7085 14.439 12.8436 14.3253 13.0013C14.0982 13.3164 13.7529 13.7269 13.2642 14.1337C12.2754 14.9569 10.7343 15.7385 8.49756 15.7386C6.26084 15.7386 4.7197 14.9569 3.7309 14.1337C3.24223 13.7269 2.8969 13.3164 2.66979 13.0013C2.55617 12.8436 2.47155 12.7085 2.41306 12.6083C2.38385 12.5582 2.36055 12.5169 2.34383 12.4852C2.33549 12.4694 2.32906 12.4558 2.32368 12.4451C2.32106 12.4399 2.3186 12.4353 2.31667 12.4314C2.31576 12.4296 2.31405 12.4259 2.31405 12.4259L2.3123 12.4232V12.4223C2.31582 12.4198 2.3685 12.3916 3.11404 12.0038L2.31142 12.4213C2.24913 12.2917 2.21679 12.1487 2.21678 12.0038V9.17534L7.40838 12.177C7.43189 12.1905 7.45603 12.2032 7.48025 12.2153L7.58451 12.2673C7.61224 12.2811 7.64095 12.2946 7.66948 12.3065C8.29146 12.5634 8.9958 12.5184 9.58673 12.177L14.7783 9.17534V12.0038ZM7.6257 0.23498C8.16773 -0.0783127 8.82748 -0.0783407 9.36942 0.23498L16.9847 4.63813L17.3754 4.84146C17.9833 5.1578 18.3673 5.8046 18.3673 6.51188V11.0701C18.3673 11.5857 17.9656 12.0037 17.4701 12.0038C16.9745 12.0038 16.5728 11.5857 16.5728 11.0701V6.53559L9.36942 10.7008C8.82748 11.0141 8.16764 11.0141 7.6257 10.7008L0.692153 6.69246C-0.230718 6.15885 -0.230718 4.77695 0.692153 4.24331L7.6257 0.23498Z" fill="#FDF8F6"/>
<path fill-rule="evenodd" clip-rule="evenodd" d="M20 16C20 19.156 17.4417 21.7143 14.2857 21.7143C11.1297 21.7143 8.57141 19.156 8.57141 16C8.57141 12.844 11.1297 10.2857 14.2857 10.2857C17.4417 10.2857 20 12.844 20 16ZM12 16.5714C12.1515 16.5714 12.2969 16.5112 12.404 16.4041C12.5112 16.2969 12.5714 16.1515 12.5714 16C12.5714 15.8484 12.5112 15.7031 12.404 15.5959C12.2969 15.4888 12.1515 15.4286 12 15.4286C11.8484 15.4286 11.7031 15.4888 11.5959 15.5959C11.4888 15.7031 11.4286 15.8484 11.4286 16C11.4286 16.1515 11.4888 16.2969 11.5959 16.4041C11.7031 16.5112 11.8484 16.5714 12 16.5714ZM14.2857 16.5714C14.4372 16.5714 14.5826 16.5112 14.6898 16.4041C14.7969 16.2969 14.8571 16.1515 14.8571 16C14.8571 15.8484 14.7969 15.7031 14.6898 15.5959C14.5826 15.4888 14.4372 15.4286 14.2857 15.4286C14.1341 15.4286 13.9888 15.4888 13.8816 15.5959C13.7745 15.7031 13.7143 15.8484 13.7143 16C13.7143 16.1515 13.7745 16.2969 13.8816 16.4041C13.9888 16.5112 14.1341 16.5714 14.2857 16.5714ZM16.5714 16.5714C16.723 16.5714 16.8683 16.5112 16.9755 16.4041C17.0826 16.2969 17.1428 16.1515 17.1428 16C17.1428 15.8484 17.0826 15.7031 16.9755 15.5959C16.8683 15.4888 16.723 15.4286 16.5714 15.4286C16.4199 15.4286 16.2745 15.4888 16.1674 15.5959C16.0602 15.7031 16 15.8484 16 16C16 16.1515 16.0602 16.2969 16.1674 16.4041C16.2745 16.5112 16.4199 16.5714 16.5714 16.5714Z" fill="#F4662D"/>
</svg>
