<svg width="18" height="23" viewBox="0 0 18 23" fill="none" xmlns="http://www.w3.org/2000/svg">
<path fill-rule="evenodd" clip-rule="evenodd" d="M17 15.5C17 18.5377 14.5377 21 11.5 21C8.46235 21 6 18.5377 6 15.5C6 12.4624 8.46235 10 11.5 10C14.5377 10 17 12.4624 17 15.5ZM9.3 16.05C9.44587 16.05 9.58576 15.9921 9.68891 15.8889C9.79205 15.7858 9.85 15.6459 9.85 15.5C9.85 15.3541 9.79205 15.2142 9.68891 15.1111C9.58576 15.0079 9.44587 14.95 9.3 14.95C9.15413 14.95 9.01424 15.0079 8.91109 15.1111C8.80795 15.2142 8.75 15.3541 8.75 15.5C8.75 15.6459 8.80795 15.7858 8.91109 15.8889C9.01424 15.9921 9.15413 16.05 9.3 16.05ZM11.5 16.05C11.6459 16.05 11.7858 15.9921 11.8889 15.8889C11.9921 15.7858 12.05 15.6459 12.05 15.5C12.05 15.3541 11.9921 15.2142 11.8889 15.1111C11.7858 15.0079 11.6459 14.95 11.5 14.95C11.3541 14.95 11.2142 15.0079 11.1111 15.1111C11.0079 15.2142 10.95 15.3541 10.95 15.5C10.95 15.6459 11.0079 15.7858 11.1111 15.8889C11.2142 15.9921 11.3541 16.05 11.5 16.05ZM13.7 16.05C13.8459 16.05 13.9858 15.9921 14.0889 15.8889C14.1921 15.7858 14.25 15.6459 14.25 15.5C14.25 15.3541 14.1921 15.2142 14.0889 15.1111C13.9858 15.0079 13.8459 14.95 13.7 14.95C13.5541 14.95 13.4142 15.0079 13.3111 15.1111C13.2079 15.2142 13.15 15.3541 13.15 15.5C13.15 15.6459 13.2079 15.7858 13.3111 15.8889C13.4142 15.9921 13.5541 16.05 13.7 16.05Z" fill="#F4662D"/>
<path fill-rule="evenodd" clip-rule="evenodd" d="M7.25 0C9.11 0 10.625 1.54713 10.625 3.45C10.625 4.18293 10.3955 4.86067 10.013 5.42033C10.5872 5.52217 11.1199 5.79275 11.5461 6.19902C11.9723 6.60529 12.2736 7.12966 12.413 7.70807C11.906 7.76122 11.4145 7.85987 10.9385 8.004C10.8477 7.68575 10.6584 7.40616 10.3991 7.20713C10.1398 7.00809 9.8243 6.90033 9.5 6.9H5C4.172 6.9 3.5 7.58847 3.5 8.43333V13.0333H5V19.1667C5 19.37 5.07902 19.565 5.21967 19.7088C5.36032 19.8526 5.55109 19.9333 5.75 19.9333H5.903C6.177 20.4833 6.505 20.9944 6.887 21.4667H5.75C4.5095 21.4667 3.5 20.4347 3.5 19.1667V14.5667C2.672 14.5667 2 13.8782 2 13.0333V8.43333C2.00195 7.7124 2.25232 7.01521 2.70713 6.46421C3.16194 5.9132 3.79212 5.54361 4.487 5.42033C4.08901 4.84383 3.87524 4.15559 3.875 3.45C3.875 1.54713 5.39 0 7.25 0ZM7.25 1.53333C6.2165 1.53333 5.375 2.39353 5.375 3.45C5.375 4.50647 6.2165 5.36667 7.25 5.36667C8.2835 5.36667 9.125 4.50647 9.125 3.45C9.125 2.39353 8.2835 1.53333 7.25 1.53333Z" fill="#FDF8F6"/>
</svg>
