<svg width="20" height="21" viewBox="0 0 20 21" fill="none" xmlns="http://www.w3.org/2000/svg">
<path d="M16.092 13.0829C16.092 13.2408 16.0567 13.3967 15.9889 13.538L15.115 13.0829C15.931 13.5078 15.9847 13.5367 15.988 13.539V13.54L15.9861 13.543C15.9861 13.543 15.9842 13.5469 15.9832 13.549C15.9811 13.5533 15.9784 13.5581 15.9756 13.5638C15.9697 13.5755 15.9627 13.5903 15.9536 13.6076C15.9354 13.6421 15.91 13.6872 15.8782 13.7417C15.8146 13.851 15.7225 13.9982 15.5987 14.17C15.3514 14.5135 14.9753 14.961 14.4433 15.4043C13.3666 16.3015 11.6885 17.1533 9.2529 17.1534C6.81736 17.1534 5.13923 16.3015 4.06253 15.4043C3.53043 14.961 3.1544 14.5135 2.9071 14.17C2.78338 13.9983 2.69124 13.851 2.62755 13.7417C2.59575 13.6872 2.57038 13.6421 2.55218 13.6076C2.54309 13.5904 2.53608 13.5755 2.53023 13.5638C2.52738 13.5582 2.5247 13.5533 2.5226 13.549C2.52161 13.5469 2.51974 13.543 2.51974 13.543L2.51783 13.54V13.539C2.52167 13.5364 2.57903 13.5056 3.39084 13.0829L2.51688 13.538C2.44905 13.3967 2.41384 13.2408 2.41383 13.0829V10.0002L8.06691 13.2717C8.0925 13.2864 8.11878 13.3003 8.14516 13.3134L8.25869 13.3701C8.28888 13.3851 8.32015 13.3999 8.35121 13.4128C9.02848 13.6929 9.79543 13.6438 10.4389 13.2717L16.092 10.0002V13.0829ZM8.30354 0.256104C8.89375 -0.0853528 9.61214 -0.0853834 10.2023 0.256104L18.4944 5.05508L18.9199 5.27669C19.5818 5.62148 20 6.32643 20 7.09728V12.0653C20 12.6272 19.5625 13.0828 19.023 13.0829C18.4834 13.0829 18.046 12.6272 18.046 12.0653V7.12313L10.2023 11.6628C9.61214 12.0042 8.89365 12.0042 8.30354 11.6628L0.753677 7.29409C-0.251226 6.71252 -0.251226 5.20639 0.753677 4.62478L8.30354 0.256104Z" fill="#FDF8F6"/>
<circle cx="13" cy="15" r="5" fill="#0A1A32"/>
<path fill-rule="evenodd" clip-rule="evenodd" d="M18 15C18 17.7615 15.7615 20 13 20C10.2385 20 8 17.7615 8 15C8 12.2385 10.2385 10 13 10C15.7615 10 18 12.2385 18 15ZM11 15.5C11.1326 15.5 11.2598 15.4474 11.3536 15.3536C11.4473 15.2598 11.5 15.1326 11.5 15C11.5 14.8674 11.4473 14.7402 11.3536 14.6465C11.2598 14.5527 11.1326 14.5 11 14.5C10.8674 14.5 10.7402 14.5527 10.6464 14.6465C10.5527 14.7402 10.5 14.8674 10.5 15C10.5 15.1326 10.5527 15.2598 10.6464 15.3536C10.7402 15.4474 10.8674 15.5 11 15.5ZM13 15.5C13.1326 15.5 13.2598 15.4474 13.3536 15.3536C13.4473 15.2598 13.5 15.1326 13.5 15C13.5 14.8674 13.4473 14.7402 13.3536 14.6465C13.2598 14.5527 13.1326 14.5 13 14.5C12.8674 14.5 12.7402 14.5527 12.6464 14.6465C12.5527 14.7402 12.5 14.8674 12.5 15C12.5 15.1326 12.5527 15.2598 12.6464 15.3536C12.7402 15.4474 12.8674 15.5 13 15.5ZM15 15.5C15.1326 15.5 15.2598 15.4474 15.3536 15.3536C15.4473 15.2598 15.5 15.1326 15.5 15C15.5 14.8674 15.4473 14.7402 15.3536 14.6465C15.2598 14.5527 15.1326 14.5 15 14.5C14.8674 14.5 14.7402 14.5527 14.6464 14.6465C14.5527 14.7402 14.5 14.8674 14.5 15C14.5 15.1326 14.5527 15.2598 14.6464 15.3536C14.7402 15.4474 14.8674 15.5 15 15.5Z" fill="#F4662D"/>
</svg>
