<svg width="14" height="20" viewBox="0 0 14 20" fill="none" xmlns="http://www.w3.org/2000/svg">
<circle cx="8.57148" cy="15.2381" r="4.7619" fill="#0A1A32"/>
<path fill-rule="evenodd" clip-rule="evenodd" d="M13.3334 15.2381C13.3334 17.8681 11.2015 20 8.57148 20C5.94148 20 3.80957 17.8681 3.80957 15.2381C3.80957 12.6081 5.94148 10.4762 8.57148 10.4762C11.2015 10.4762 13.3334 12.6081 13.3334 15.2381ZM6.66671 15.7143C6.79301 15.7143 6.91413 15.6641 7.00343 15.5748C7.09273 15.4855 7.1429 15.3644 7.1429 15.2381C7.1429 15.1118 7.09273 14.9907 7.00343 14.9014C6.91413 14.8121 6.79301 14.7619 6.66671 14.7619C6.54042 14.7619 6.4193 14.8121 6.33 14.9014C6.24069 14.9907 6.19052 15.1118 6.19052 15.2381C6.19052 15.3644 6.24069 15.4855 6.33 15.5748C6.4193 15.6641 6.54042 15.7143 6.66671 15.7143ZM8.57148 15.7143C8.69777 15.7143 8.81889 15.6641 8.90819 15.5748C8.9975 15.4855 9.04767 15.3644 9.04767 15.2381C9.04767 15.1118 8.9975 14.9907 8.90819 14.9014C8.81889 14.8121 8.69777 14.7619 8.57148 14.7619C8.44518 14.7619 8.32406 14.8121 8.23476 14.9014C8.14545 14.9907 8.09528 15.1118 8.09528 15.2381C8.09528 15.3644 8.14545 15.4855 8.23476 15.5748C8.32406 15.6641 8.44518 15.7143 8.57148 15.7143ZM10.4762 15.7143C10.6025 15.7143 10.7237 15.6641 10.813 15.5748C10.9023 15.4855 10.9524 15.3644 10.9524 15.2381C10.9524 15.1118 10.9023 14.9907 10.813 14.9014C10.7237 14.8121 10.6025 14.7619 10.4762 14.7619C10.3499 14.7619 10.2288 14.8121 10.1395 14.9014C10.0502 14.9907 10 15.1118 10 15.2381C10 15.3644 10.0502 15.4855 10.1395 15.5748C10.2288 15.6641 10.3499 15.7143 10.4762 15.7143Z" fill="#F4662D"/>
<path fill-rule="evenodd" clip-rule="evenodd" d="M4.80169 0C6.50286 0 7.88849 1.44143 7.88849 3.21429C7.88849 3.89714 7.67859 4.52857 7.32875 5.05C7.8539 5.14488 8.34115 5.39697 8.73096 5.77549C9.12077 6.154 9.39627 6.64254 9.52381 7.18143C9.0601 7.23095 8.61057 7.32286 8.17522 7.45714C8.09217 7.16064 7.91908 6.90015 7.68188 6.71471C7.44469 6.52928 7.15616 6.42888 6.85956 6.42857H2.74382C1.98653 6.42857 1.37191 7.07 1.37191 7.85714V12.1429H2.74382V17.8571C2.74382 18.0466 2.81609 18.2283 2.94473 18.3622C3.07338 18.4962 3.24785 18.5714 3.42978 18.5714H3.56971C3.82032 19.0838 4.12031 19.56 4.46969 20H3.42978C2.29521 20 1.37191 19.0386 1.37191 17.8571V13.5714C0.614616 13.5714 0 12.93 0 12.1429V7.85714C0.00178786 7.18546 0.230774 6.53591 0.646748 6.02255C1.06272 5.5092 1.63909 5.16486 2.27463 5.05C1.91063 4.51289 1.71511 3.87167 1.71489 3.21429C1.71489 1.44143 3.10052 0 4.80169 0ZM4.80169 1.42857C3.85644 1.42857 3.0868 2.23 3.0868 3.21429C3.0868 4.19857 3.85644 5 4.80169 5C5.74694 5 6.51658 4.19857 6.51658 3.21429C6.51658 2.23 5.74694 1.42857 4.80169 1.42857Z" fill="#FDF8F6"/>
</svg>
