<svg width="18" height="17" viewBox="0 0 18 17" fill="none" xmlns="http://www.w3.org/2000/svg">
<path d="M8.1 11.6316V9.8421H9.9V11.6316H8.1ZM7.2 3.57895H10.8V1.78947H7.2V3.57895ZM1.8 17C1.305 17 0.8814 16.8249 0.5292 16.4748C0.177 16.1246 0.0006 15.7032 0 15.2105V11.6316H6.3V12.5263C6.3 12.7798 6.3864 12.9925 6.5592 13.1643C6.732 13.3361 6.9456 13.4216 7.2 13.4211H10.8C11.055 13.4211 11.2689 13.3352 11.4417 13.1634C11.6145 12.9916 11.7006 12.7792 11.7 12.5263V11.6316H18V15.2105C18 15.7026 17.8239 16.1241 17.4717 16.4748C17.1195 16.8255 16.6956 17.0006 16.2 17H1.8ZM0 9.8421V5.36842C0 4.87632 0.1764 4.45519 0.5292 4.10505C0.882 3.75491 1.3056 3.57954 1.8 3.57895H5.4V1.78947C5.4 1.29737 5.5764 0.876246 5.9292 0.526105C6.282 0.175965 6.7056 0.000596491 7.2 0H10.8C11.295 0 11.7189 0.175368 12.0717 0.526105C12.4245 0.876842 12.6006 1.29796 12.6 1.78947V3.57895H16.2C16.695 3.57895 17.1189 3.75432 17.4717 4.10505C17.8245 4.45579 18.0006 4.87691 18 5.36842V9.8421H11.7V8.94737C11.7 8.69386 11.6136 8.48151 11.4408 8.31032C11.268 8.13912 11.0544 8.05323 10.8 8.05263H7.2C6.945 8.05263 6.7314 8.13853 6.5592 8.31032C6.387 8.4821 6.3006 8.69446 6.3 8.94737V9.8421H0Z" fill="#FDF8F6"/>
</svg>
