<svg width="20" height="20" viewBox="0 0 20 20" fill="none" xmlns="http://www.w3.org/2000/svg">
<rect y="1.11111" width="20" height="11.1111" fill="#0A1A32"/>
<path fill-rule="evenodd" clip-rule="evenodd" d="M2.14286 0C1.57454 0 1.02949 0.227799 0.627628 0.633283C0.225765 1.03877 0 1.58872 0 2.16216L0 10.8108C0 11.3843 0.225765 11.9342 0.627628 12.3397C1.02949 12.7452 1.57454 12.973 2.14286 12.973H17.8571C18.4255 12.973 18.9705 12.7452 19.3724 12.3397C19.7742 11.9342 20 11.3843 20 10.8108V2.16216C20 1.58872 19.7742 1.03877 19.3724 0.633283C18.9705 0.227799 18.4255 0 17.8571 0L2.14286 0ZM10.8929 2.09586C10.8929 1.85692 10.7988 1.62777 10.6313 1.45882C10.4639 1.28987 10.2368 1.19495 10 1.19495C9.7632 1.19495 9.5361 1.28987 9.36865 1.45882C9.20121 1.62777 9.10714 1.85692 9.10714 2.09586V2.67243C8.59303 2.73322 8.11691 2.9759 7.76335 3.35738C7.40979 3.73886 7.20168 4.23444 7.17598 4.75609C7.15028 5.27775 7.30867 5.7917 7.62299 6.20668C7.93732 6.62165 8.38725 6.91078 8.89286 7.0227L10.6029 7.39892C10.7405 7.42528 10.8633 7.50301 10.9467 7.61663C11.0301 7.73024 11.068 7.8714 11.0529 8.01196C11.0377 8.15252 10.9707 8.28216 10.865 8.37505C10.7594 8.46794 10.6229 8.51725 10.4829 8.51315H9.51714C9.40161 8.51354 9.28882 8.47768 9.19437 8.41054C9.09993 8.34339 9.02851 8.24828 8.99 8.13838C8.90559 7.92075 8.74067 7.74474 8.53006 7.6475C8.31945 7.55026 8.07963 7.5394 7.86124 7.61722C7.64285 7.69504 7.46297 7.85544 7.35958 8.06457C7.2562 8.27369 7.23739 8.51517 7.30714 8.73802C7.58429 9.53081 8.26857 10.129 9.10714 10.2789V10.8771C9.10714 11.1161 9.20121 11.3452 9.36865 11.5142C9.5361 11.6831 9.7632 11.778 10 11.778C10.2368 11.778 10.4639 11.6831 10.6313 11.5142C10.7988 11.3452 10.8929 11.1161 10.8929 10.8771V10.2775C11.4273 10.1819 11.9124 9.90217 12.2652 9.48599C12.6181 9.0698 12.8169 8.54296 12.8277 7.99537C12.8384 7.44779 12.6606 6.91339 12.3244 6.48338C11.9882 6.05337 11.5146 5.7544 10.9843 5.63748L9.27429 5.26126C9.17684 5.24063 9.09047 5.18418 9.03195 5.1029C8.97343 5.02161 8.94694 4.92128 8.95762 4.82139C8.96831 4.72151 9.0154 4.62919 9.08976 4.56237C9.16412 4.49555 9.26043 4.459 9.36 4.45982H10.4829C10.5984 4.45943 10.7112 4.49529 10.8056 4.56243C10.9001 4.62958 10.9715 4.72469 11.01 4.83459C11.0461 4.94984 11.1048 5.05658 11.1826 5.14847C11.2604 5.24035 11.3557 5.31551 11.4629 5.36945C11.57 5.4234 11.6869 5.45503 11.8064 5.46248C11.926 5.46992 12.0458 5.45302 12.1587 5.41277C12.2717 5.37253 12.3754 5.30977 12.4638 5.22823C12.5522 5.14669 12.6235 5.04804 12.6733 4.93814C12.7231 4.82825 12.7506 4.70936 12.7539 4.58855C12.7573 4.46775 12.7365 4.3475 12.6929 4.23495C12.5548 3.84035 12.3155 3.48977 11.9992 3.21905C11.683 2.94833 11.3012 2.76716 10.8929 2.69405V2.09586ZM3.92857 5.40541C4.21273 5.40541 4.48525 5.5193 4.68619 5.72205C4.88712 5.92479 5 6.19977 5 6.48649C5 6.77321 4.88712 7.04818 4.68619 7.25093C4.48525 7.45367 4.21273 7.56757 3.92857 7.56757C3.64441 7.56757 3.37189 7.45367 3.17096 7.25093C2.97003 7.04818 2.85714 6.77321 2.85714 6.48649C2.85714 6.19977 2.97003 5.92479 3.17096 5.72205C3.37189 5.5193 3.64441 5.40541 3.92857 5.40541ZM16.0714 5.40541C16.3556 5.40541 16.6281 5.5193 16.829 5.72205C17.03 5.92479 17.1429 6.19977 17.1429 6.48649C17.1429 6.77321 17.03 7.04818 16.829 7.25093C16.6281 7.45367 16.3556 7.56757 16.0714 7.56757C15.7873 7.56757 15.5147 7.45367 15.3138 7.25093C15.1129 7.04818 15 6.77321 15 6.48649C15 6.19977 15.1129 5.92479 15.3138 5.72205C15.5147 5.5193 15.7873 5.40541 16.0714 5.40541ZM6.42857 14.2342C6.92143 14.2342 7.32143 14.6378 7.32143 15.1351V18.018C7.32143 18.257 7.22736 18.4861 7.05992 18.6551C6.89247 18.824 6.66537 18.9189 6.42857 18.9189C6.19177 18.9189 5.96467 18.824 5.79723 18.6551C5.62978 18.4861 5.53571 18.257 5.53571 18.018V15.1351C5.53571 14.6378 5.93571 14.2342 6.42857 14.2342ZM14.4643 15.1351C14.4643 15.0168 14.4412 14.8997 14.3963 14.7904C14.3515 14.6811 14.2857 14.5818 14.2028 14.4981C14.1199 14.4144 14.0214 14.3481 13.9131 14.3028C13.8048 14.2575 13.6887 14.2342 13.5714 14.2342C13.4542 14.2342 13.3381 14.2575 13.2297 14.3028C13.1214 14.3481 13.023 14.4144 12.9401 14.4981C12.8572 14.5818 12.7914 14.6811 12.7465 14.7904C12.7017 14.8997 12.6786 15.0168 12.6786 15.1351V18.018C12.6786 18.1363 12.7017 18.2535 12.7465 18.3628C12.7914 18.4721 12.8572 18.5714 12.9401 18.6551C13.023 18.7387 13.1214 18.8051 13.2297 18.8503C13.3381 18.8956 13.4542 18.9189 13.5714 18.9189C13.6887 18.9189 13.8048 18.8956 13.9131 18.8503C14.0214 18.8051 14.1199 18.7387 14.2028 18.6551C14.2857 18.5714 14.3515 18.4721 14.3963 18.3628C14.4412 18.2535 14.4643 18.1363 14.4643 18.018V15.1351ZM10.8929 16.2162C10.8929 15.9773 10.7988 15.7481 10.6313 15.5792C10.4639 15.4102 10.2368 15.3153 10 15.3153C9.7632 15.3153 9.5361 15.4102 9.36865 15.5792C9.20121 15.7481 9.10714 15.9773 9.10714 16.2162V19.0991C9.10714 19.338 9.20121 19.5672 9.36865 19.7361C9.5361 19.9051 9.7632 20 10 20C10.2368 20 10.4639 19.9051 10.6313 19.7361C10.7988 19.5672 10.8929 19.338 10.8929 19.0991V16.2162Z" fill="#FDF8F6"/>
</svg>
