<svg width="18" height="18" viewBox="0 0 18 18" fill="none" xmlns="http://www.w3.org/2000/svg">
<path fill-rule="evenodd" clip-rule="evenodd" d="M1.92857 0C1.41708 0 0.926543 0.205019 0.564865 0.569954C0.203188 0.93489 0 1.42985 0 1.94595L0 9.72973C0 10.2458 0.203188 10.7408 0.564865 11.1057C0.926543 11.4707 1.41708 11.6757 1.92857 11.6757H16.0714C16.5829 11.6757 17.0735 11.4707 17.4351 11.1057C17.7968 10.7408 18 10.2458 18 9.72973V1.94595C18 1.42985 17.7968 0.93489 17.4351 0.569954C17.0735 0.205019 16.5829 0 16.0714 0L1.92857 0ZM9.80357 1.88627C9.80357 1.67123 9.71891 1.465 9.56821 1.31294C9.41751 1.16088 9.21312 1.07546 9 1.07546C8.78688 1.07546 8.58249 1.16088 8.43179 1.31294C8.28109 1.465 8.19643 1.67123 8.19643 1.88627V2.40519C7.73372 2.4599 7.30521 2.67831 6.98701 3.02165C6.66881 3.36498 6.48151 3.811 6.45838 4.28048C6.43526 4.74997 6.5778 5.21253 6.8607 5.58601C7.14359 5.95949 7.54852 6.2197 8.00357 6.32043L9.54257 6.65903C9.66647 6.68275 9.77697 6.75271 9.85203 6.85496C9.9271 6.95722 9.96122 7.08426 9.94759 7.21076C9.93397 7.33727 9.8736 7.45395 9.77852 7.53755C9.68344 7.62114 9.56063 7.66552 9.43457 7.66184H8.56543C8.46145 7.66219 8.35993 7.62991 8.27494 7.56948C8.18994 7.50905 8.12566 7.42346 8.091 7.32454C8.01503 7.12868 7.8666 6.97027 7.67705 6.88275C7.48751 6.79523 7.27167 6.78546 7.07512 6.8555C6.87856 6.92554 6.71667 7.0699 6.62362 7.25811C6.53058 7.44632 6.51365 7.66365 6.57643 7.86422C6.82586 8.57773 7.44171 9.11611 8.19643 9.25103V9.7894C8.19643 10.0044 8.28109 10.2107 8.43179 10.3627C8.58249 10.5148 8.78688 10.6002 9 10.6002C9.21312 10.6002 9.41751 10.5148 9.56821 10.3627C9.71891 10.2107 9.80357 10.0044 9.80357 9.7894V9.24973C10.2846 9.16372 10.7211 8.91196 11.0387 8.53739C11.3563 8.16282 11.5352 7.68866 11.5449 7.19584C11.5546 6.70301 11.3945 6.22205 11.092 5.83505C10.7894 5.44804 10.3631 5.17896 9.88586 5.07373L8.34686 4.73514C8.25915 4.71656 8.18142 4.66577 8.12875 4.59261C8.07609 4.51945 8.05225 4.42915 8.06186 4.33925C8.07148 4.24935 8.11386 4.16627 8.18078 4.10613C8.2477 4.046 8.33439 4.0131 8.424 4.01384H9.43457C9.53855 4.01349 9.64007 4.04576 9.72506 4.10619C9.81006 4.16662 9.87434 4.25222 9.909 4.35114C9.94146 4.45485 9.99428 4.55092 10.0643 4.63362C10.1343 4.71632 10.2201 4.78396 10.3166 4.83251C10.413 4.88106 10.5182 4.90953 10.6258 4.91623C10.7334 4.92293 10.8412 4.90771 10.9428 4.8715C11.0445 4.83528 11.1379 4.77879 11.2174 4.70541C11.297 4.63202 11.3611 4.54323 11.406 4.44433C11.4508 4.34542 11.4755 4.23842 11.4785 4.1297C11.4815 4.02097 11.4629 3.91275 11.4236 3.81146C11.2994 3.45631 11.0839 3.1408 10.7993 2.89715C10.5147 2.6535 10.1711 2.49045 9.80357 2.42465V1.88627ZM3.53571 4.86486C3.79146 4.86486 4.03673 4.96737 4.21757 5.14984C4.39841 5.33231 4.5 5.57979 4.5 5.83784C4.5 6.09589 4.39841 6.34337 4.21757 6.52583C4.03673 6.7083 3.79146 6.81081 3.53571 6.81081C3.27997 6.81081 3.0347 6.7083 2.85386 6.52583C2.67302 6.34337 2.57143 6.09589 2.57143 5.83784C2.57143 5.57979 2.67302 5.33231 2.85386 5.14984C3.0347 4.96737 3.27997 4.86486 3.53571 4.86486ZM14.4643 4.86486C14.72 4.86486 14.9653 4.96737 15.1461 5.14984C15.327 5.33231 15.4286 5.57979 15.4286 5.83784C15.4286 6.09589 15.327 6.34337 15.1461 6.52583C14.9653 6.7083 14.72 6.81081 14.4643 6.81081C14.2085 6.81081 13.9633 6.7083 13.7824 6.52583C13.6016 6.34337 13.5 6.09589 13.5 5.83784C13.5 5.57979 13.6016 5.33231 13.7824 5.14984C13.9633 4.96737 14.2085 4.86486 14.4643 4.86486ZM5.78571 12.8108C6.22929 12.8108 6.58929 13.1741 6.58929 13.6216V16.2162C6.58929 16.4313 6.50462 16.6375 6.35393 16.7895C6.20323 16.9416 5.99883 17.027 5.78571 17.027C5.57259 17.027 5.3682 16.9416 5.2175 16.7895C5.0668 16.6375 4.98214 16.4313 4.98214 16.2162V13.6216C4.98214 13.1741 5.34214 12.8108 5.78571 12.8108ZM13.0179 13.6216C13.0179 13.5151 12.9971 13.4097 12.9567 13.3113C12.9163 13.213 12.8571 13.1236 12.7825 13.0483C12.7079 12.973 12.6193 12.9133 12.5218 12.8725C12.4243 12.8318 12.3198 12.8108 12.2143 12.8108C12.1088 12.8108 12.0043 12.8318 11.9068 12.8725C11.8093 12.9133 11.7207 12.973 11.6461 13.0483C11.5715 13.1236 11.5123 13.213 11.4719 13.3113C11.4315 13.4097 11.4107 13.5151 11.4107 13.6216V16.2162C11.4107 16.3227 11.4315 16.4281 11.4719 16.5265C11.5123 16.6249 11.5715 16.7143 11.6461 16.7895C11.7207 16.8648 11.8093 16.9246 11.9068 16.9653C12.0043 17.0061 12.1088 17.027 12.2143 17.027C12.3198 17.027 12.4243 17.0061 12.5218 16.9653C12.6193 16.9246 12.7079 16.8648 12.7825 16.7895C12.8571 16.7143 12.9163 16.6249 12.9567 16.5265C12.9971 16.4281 13.0179 16.3227 13.0179 16.2162V13.6216ZM9.80357 14.5946C9.80357 14.3796 9.71891 14.1733 9.56821 14.0213C9.41751 13.8692 9.21312 13.7838 9 13.7838C8.78688 13.7838 8.58249 13.8692 8.43179 14.0213C8.28109 14.1733 8.19643 14.3796 8.19643 14.5946V17.1892C8.19643 17.4042 8.28109 17.6105 8.43179 17.7625C8.58249 17.9146 8.78688 18 9 18C9.21312 18 9.41751 17.9146 9.56821 17.7625C9.71891 17.6105 9.80357 17.4042 9.80357 17.1892V14.5946Z" fill="#FDF8F6"/>
</svg>
